{
  "accessors": [
    {
      "bufferView": 2,
      "componentType": 5126,
      "count": 334,
      "max": [
        71.43389892578125,
        20.598751068115234,
        44.962905883789062
      ],
      "min": [
        -71.433876037597656,
        -20.598747253417969,
        -44.962909698486328
      ],
      "type": "VEC3"
    },
    {
      "bufferView": 2,
      "byteOffset": 4008,
      "componentType": 5126,
      "count": 334,
      "max": [
        0.9995582103729248,
        1,
        0.99987560510635376
      ],
      "min": [
        -0.99999958276748657,
        -1,
        -0.98022007942199707
      ],
      "type": "VEC3"
    },
    {
      "bufferView": 3,
      "componentType": 5126,
      "count": 334,
      "max": [
        1,
        0.99965184926986694,
        0.51558983325958252,
        1
      ],
      "min": [
        -0.020972684025764465,
        -0.99965161085128784,
        -0.58213949203491211,
        -1
      ],
      "type": "VEC4"
    },
    {
      "bufferView": 1,
      "componentType": 5126,
      "count": 334,
      "max": [
        0.93347364664077759,
        0.95832198858261108
      ],
      "min": [
        0.033616252243518829,
        0.079588025808334351
      ],
      "type": "VEC2"
    },
    {
      "bufferView": 0,
      "componentType": 5125,
      "count": 1728,
      "max": [
        333
      ],
      "min": [
        0
      ],
      "type": "SCALAR"
    }
  ],
  "asset": {
    "extras": {
      "author": "darklordflash (https://sketchfab.com/darklordflash)",
      "license": "CC-BY-4.0 (http://creativecommons.org/licenses/by/4.0/)",
      "source": "https://sketchfab.com/models/59c43636fd4349278e38ab7c8845a9b9",
      "title": "Liver (Low-Poly & High Quality)"
    },
    "generator": "Sketchfab-3.19.7",
    "version": "2.0"
  },
  "bufferViews": [
    {
      "buffer": 0,
      "byteLength": 6912,
      "byteOffset": 0,
      "name": "floatBufferViews",
      "target": 34963
    },
    {
      "buffer": 0,
      "byteLength": 2672,
      "byteOffset": 6912,
      "byteStride": 8,
      "name": "floatBufferViews",
      "target": 34962
    },
    {
      "buffer": 0,
      "byteLength": 8016,
      "byteOffset": 9584,
      "byteStride": 12,
      "name": "floatBufferViews",
      "target": 34962
    },
    {
      "buffer": 0,
      "byteLength": 5344,
      "byteOffset": 17600,
      "byteStride": 16,
      "name": "floatBufferViews",
      "target": 34962
    }
  ],
  "buffers": [
    {
      "byteLength": 22944,
      "uri": "scene.bin"
    }
  ],
  "images": [
    {
      "uri": "textures/LiverTex_baseColor.png"
    },
    {
      "uri": "textures/LiverTex_normal.png"
    },
    {
      "uri": "textures/LiverTex_metallicRoughness.png"
    }
  ],
  "materials": [
    {
      "doubleSided": false,
      "name": "LiverTex",
      "normalTexture": {
        "index": 1,
        "scale": 1,
        "texCoord": 0
      },
      "occlusionTexture": {
        "index": 2,
        "strength": 1,
        "texCoord": 0
      },
      "pbrMetallicRoughness": {
        "baseColorFactor": [
          1,
          1,
          1,
          1
        ],
        "baseColorTexture": {
          "index": 0,
          "texCoord": 0
        },
        "metallicFactor": 0.12804878049999999,
        "metallicRoughnessTexture": {
          "index": 2,
          "texCoord": 0
        },
        "roughnessFactor": 1
      }
    }
  ],
  "meshes": [
    {
      "name": "Liver1a_LiverTex_0",
      "primitives": [
        {
          "attributes": {
            "NORMAL": 1,
            "POSITION": 0,
            "TANGENT": 2,
            "TEXCOORD_0": 3
          },
          "indices": 4,
          "material": 0,
          "mode": 4
        }
      ]
    }
  ],
  "nodes": [
    {
      "children": [
        1
      ],
      "name": "RootNode (gltf orientation matrix)",
      "rotation": [
        -0.70710678118654746,
        -0,
        -0,
        0.70710678118654757
      ]
    },
    {
      "children": [
        2
      ],
      "matrix": [
        -0.99995326995849609,
        0,
        0.0096654742956161499,
        0,
        0,
        1,
        0,
        0,
        -0.0096654742956161499,
        0,
        -0.99995326995849609,
        0,
        -0.47774505615234375,
        0,
        -98.828422546386719,
        1
      ],
      "name": "RootNode (model correction matrix)"
    },
    {
      "children": [
        3
      ],
      "matrix": [
        1,
        0,
        0,
        0,
        0,
        -1,
        0,
        0,
        0,
        0,
        -1,
        0,
        0,
        0,
        0,
        1
      ],
      "name": "0df7bbc9e5194d5e98925ff8ca8d3cb4.fbx"
    },
    {
      "children": [
        4
      ],
      "name": "RootNode"
    },
    {
      "children": [
        5
      ],
      "matrix": [
        1,
        0,
        0,
        0,
        0,
        1,
        0,
        0,
        0,
        0,
        1,
        0,
        -1.52587890625e-05,
        -1.52587890625e-05,
        49.415374755859375,
        1
      ],
      "name": "Liver1a"
    },
    {
      "mesh": 0,
      "name": "Liver1a_LiverTex_0"
    }
  ],
  "samplers": [
    {
      "magFilter": 9729,
      "minFilter": 9987,
      "wrapS": 10497,
      "wrapT": 10497
    }
  ],
  "scene": 0,
  "scenes": [
    {
      "name": "OSG_Scene",
      "nodes": [
        0
      ]
    }
  ],
  "textures": [
    {
      "sampler": 0,
      "source": 0
    },
    {
      "sampler": 0,
      "source": 1
    },
    {
      "sampler": 0,
      "source": 2
    }
  ]
}

